{
  "accessors": [
    {
      "bufferView": 2,
      "componentType": 5126,
      "count": 23318,
      "max": [
        0.4217360019683838,
        0.9493409991264343,
        -0.0
      ],
      "min": [
        -0.4212520122528076,
        -0.9480800032615662,
        -0.49213701486587524
      ],
      "type": "VEC3"
    },
    {
      "bufferView": 2,
      "byteOffset": 279816,
      "componentType": 5126,
      "count": 23318,
      "max": [
        1.0,
        1.0,
        1.0
      ],
      "min": [
        -1.0,
        -1.0,
        -0.9999923706054688
      ],
      "type": "VEC3"
    },
    {
      "bufferView": 3,
      "componentType": 5126,
      "count": 23318,
      "max": [
        1.0,
        0.9999991059303284,
        1.0,
        1.0
      ],
      "min": [
        -0.999999463558197,
        -0.999995768070221,
        -1.0,
        -1.0
      ],
      "type": "VEC4"
    },
    {
      "bufferView": 1,
      "componentType": 5126,
      "count": 23318,
      "max": [
        0.9990829825401306,
        0.9990829825401306
      ],
      "min": [
        0.0009169999975711107,
        0.008665025234222412
      ],
      "type": "VEC2"
    },
    {
      "bufferView": 1,
      "byteOffset": 186544,
      "componentType": 5126,
      "count": 23318,
      "max": [
        0.9990829825401306,
        0.9990829825401306
      ],
      "min": [
        0.0009169999975711107,
        0.008665025234222412
      ],
      "type": "VEC2"
    },
    {
      "bufferView": 1,
      "byteOffset": 373088,
      "componentType": 5126,
      "count": 23318,
      "max": [
        0.9990829825401306,
        0.9990829825401306
      ],
      "min": [
        0.0009169999975711107,
        0.008665025234222412
      ],
      "type": "VEC2"
    },
    {
      "bufferView": 1,
      "byteOffset": 559632,
      "componentType": 5126,
      "count": 23318,
      "max": [
        0.9990829825401306,
        0.9990829825401306
      ],
      "min": [
        0.0009169999975711107,
        0.008665025234222412
      ],
      "type": "VEC2"
    },
    {
      "bufferView": 0,
      "componentType": 5125,
      "count": 108798,
      "type": "SCALAR"
    }
  ],
  "asset": {
    "extras": {
      "author": "AaronNg (https://sketchfab.com/AaronNg)",
      "license": "CC-BY-4.0 (http://creativecommons.org/licenses/by/4.0/)",
      "source": "https://sketchfab.com/3d-models/my-futuristic-concept-car-2b0c4c23cd6046ac82f04b1b5be28a67",
      "title": "My Futuristic Concept Car"
    },
    "generator": "Sketchfab-16.63.0",
    "version": "2.0"
  },
  "bufferViews": [
    {
      "buffer": 0,
      "byteLength": 435192,
      "name": "floatBufferViews",
      "target": 34963
    },
    {
      "buffer": 0,
      "byteLength": 746176,
      "byteOffset": 435192,
      "byteStride": 8,
      "name": "floatBufferViews",
      "target": 34962
    },
    {
      "buffer": 0,
      "byteLength": 559632,
      "byteOffset": 1181368,
      "byteStride": 12,
      "name": "floatBufferViews",
      "target": 34962
    },
    {
      "buffer": 0,
      "byteLength": 373088,
      "byteOffset": 1741000,
      "byteStride": 16,
      "name": "floatBufferViews",
      "target": 34962
    }
  ],
  "buffers": [
    {
      "byteLength": 2114088,
      "uri": "scene.bin"
    }
  ],
  "images": [
    {
      "uri": "textures/CustomMaterial_baseColor.png"
    },
    {
      "uri": "textures/CustomMaterial_metallicRoughness.png"
    },
    {
      "uri": "textures/CustomMaterial_normal.png"
    }
  ],
  "materials": [
    {
      "doubleSided": true,
      "name": "CustomMaterial",
      "normalTexture": {
        "index": 2
      },
      "pbrMetallicRoughness": {
        "baseColorTexture": {
          "index": 0
        },
        "metallicRoughnessTexture": {
          "index": 1
        }
      }
    }
  ],
  "meshes": [
    {
      "name": "Object_0",
      "primitives": [
        {
          "attributes": {
            "NORMAL": 1,
            "POSITION": 0,
            "TANGENT": 2,
            "TEXCOORD_0": 3,
            "TEXCOORD_1": 4,
            "TEXCOORD_2": 5,
            "TEXCOORD_3": 6
          },
          "indices": 7,
          "material": 0,
          "mode": 4
        }
      ]
    }
  ],
  "nodes": [
    {
      "children": [
        1
      ],
      "matrix": [
        1.0,
        0.0,
        0.0,
        0.0,
        0.0,
        2.220446049250313e-16,
        -1.0,
        0.0,
        0.0,
        1.0,
        2.220446049250313e-16,
        0.0,
        0.0,
        0.0,
        0.0,
        1.0
      ],
      "name": "Sketchfab_model"
    },
    {
      "children": [
        2
      ],
      "name": "root"
    },
    {
      "children": [
        3
      ],
      "matrix": [
        1.0,
        0.0,
        0.0,
        0.0,
        0.0,
        2.220446049250313e-16,
        1.0,
        0.0,
        0.0,
        -1.0,
        2.220446049250313e-16,
        0.0,
        0.0,
        0.0,
        0.0,
        1.0
      ],
      "name": "GLTF_SceneRootNode"
    },
    {
      "children": [
        4
      ],
      "matrix": [
        1.0,
        0.0,
        0.0,
        0.0,
        0.0,
        0.0,
        1.0,
        0.0,
        0.0,
        -1.0,
        0.0,
        0.0,
        0.0,
        0.0,
        0.0,
        1.0
      ],
      "name": "model_0"
    },
    {
      "mesh": 0,
      "name": "Object_4"
    }
  ],
  "samplers": [
    {
      "magFilter": 9729,
      "minFilter": 9987,
      "wrapS": 10497,
      "wrapT": 10497
    }
  ],
  "scene": 0,
  "scenes": [
    {
      "name": "Sketchfab_Scene",
      "nodes": [
        0
      ]
    }
  ],
  "textures": [
    {
      "sampler": 0,
      "source": 0
    },
    {
      "sampler": 0,
      "source": 1
    },
    {
      "sampler": 0,
      "source": 2
    }
  ]
}
